<?xml version="1.0" encoding="UTF-8"?>
<!DOCTYPE svg PUBLIC "-//W3C//DTD SVG 1.1//EN" "http://www.w3.org/Graphics/SVG/1.1/DTD/svg11.dtd">
<svg xmlns="http://www.w3.org/2000/svg" version="1.1" width="2000px" height="400px" style="shape-rendering:geometricPrecision; text-rendering:geometricPrecision; image-rendering:optimizeQuality; fill-rule:evenodd; clip-rule:evenodd" xmlns:xlink="http://www.w3.org/1999/xlink">
<g><path style="opacity:0.992" fill="#fdfefd" d="M 1716.5,4.5 C 1866.62,4.11677 1936.79,78.7834 1927,228.5C 1918.22,319.276 1869.06,373.109 1779.5,390C 1734.64,397.425 1690.3,395.092 1646.5,383C 1578.76,360.242 1539.59,313.408 1529,242.5C 1521.99,196.734 1526.32,152.067 1542,108.5C 1565.25,56.5999 1604.75,24.4332 1660.5,12C 1679.12,8.02854 1697.79,5.52854 1716.5,4.5 Z M 1719.5,109.5 C 1737.31,108.202 1753.64,112.369 1768.5,122C 1778.5,131.835 1785,143.668 1788,157.5C 1794.89,190.206 1793.56,222.539 1784,254.5C 1775,275.929 1758.83,287.429 1735.5,289C 1715.89,291.35 1698.23,286.683 1682.5,275C 1676.95,269.4 1672.78,262.9 1670,255.5C 1666.72,245.721 1664.39,235.721 1663,225.5C 1662.33,208.5 1662.33,191.5 1663,174.5C 1664.47,158.245 1669.47,143.245 1678,129.5C 1689.54,117.939 1703.37,111.272 1719.5,109.5 Z"/></g>
<g><path style="opacity:0.99" fill="#fdfefd" d="M 180.5,8.5 C 189.917,7.61854 196.084,11.6185 199,20.5C 198.512,67.8282 198.512,115.162 199,162.5C 222.061,113.379 245.394,64.3786 269,15.5C 272.321,10.9225 276.821,8.58917 282.5,8.5C 308.846,9.66731 335.179,11.1673 361.5,13C 376.46,12.0145 383.96,18.8478 384,33.5C 354.507,96.6532 324.34,159.487 293.5,222C 325.333,268.5 357.167,315 389,361.5C 390.924,372.838 386.424,380.004 375.5,383C 347.683,384.814 319.85,386.314 292,387.5C 284.442,388.875 278.442,386.541 274,380.5C 255.083,348.993 235.416,317.993 215,287.5C 208.612,277.391 203.279,266.724 199,255.5C 198.254,291.339 198.421,327.172 199.5,363C 199.333,367.167 199.167,371.333 199,375.5C 198.043,381.127 194.876,384.96 189.5,387C 158.118,387.048 126.785,385.714 95.5,383C 85.3993,381.565 80.2327,375.731 80,365.5C 73.7103,251.8 74.0436,138.133 81,24.5C 83.2563,19.2425 87.0896,15.7425 92.5,14C 121.965,11.7694 151.298,9.93606 180.5,8.5 Z"/></g>
<g><path style="opacity:0.989" fill="#fdfefd" d="M 511.5,10.5 C 517.842,10.3338 524.175,10.5005 530.5,11C 533.102,11.8834 535.269,13.3834 537,15.5C 552.079,44.6582 567.412,73.6582 583,102.5C 598.37,75.0941 612.704,47.0941 626,18.5C 627.892,14.9421 630.725,12.4421 634.5,11C 666.528,11.3522 698.528,12.6856 730.5,15C 741.271,17.042 746.438,23.542 746,34.5C 712.76,95.3193 678.76,155.653 644,215.5C 643.611,268.837 642.944,322.17 642,375.5C 641.27,381.136 638.436,385.303 633.5,388C 600.214,389.638 566.881,389.972 533.5,389C 527.531,387.702 523.365,384.202 521,378.5C 519.109,324.218 518.109,269.884 518,215.5C 485.824,156.484 454.158,97.1509 423,37.5C 420.396,25.7651 424.896,18.2651 436.5,15C 461.659,13.5104 486.659,12.0104 511.5,10.5 Z"/></g>
<g><path style="opacity:0.984" fill="#fdfefd" d="M 861.5,10.5 C 869.174,10.3336 876.841,10.5003 884.5,11C 886.587,11.7922 888.421,12.9588 890,14.5C 924.273,67.7702 958.94,120.77 994,173.5C 1036.67,233.5 1079.33,293.5 1122,353.5C 1124.47,362.219 1123.47,370.553 1119,378.5C 1116.13,381.463 1112.63,383.296 1108.5,384C 1076.67,385.764 1044.84,387.264 1013,388.5C 1007.67,388.589 1003.33,386.589 1000,382.5C 965.166,326.828 929.833,271.494 894,216.5C 893.683,218.301 893.016,218.634 892,217.5C 853.725,160.226 815.058,103.226 776,46.5C 774.664,37.8316 775.664,29.4983 779,21.5C 780.873,19.2911 783.04,17.4578 785.5,16C 810.897,13.2823 836.23,11.449 861.5,10.5 Z"/></g>
<g><path style="opacity:0.987" fill="#fdfefd" d="M 1013.5,10.5 C 1045.88,10.8828 1078.22,12.3828 1110.5,15C 1115.67,17.5 1119.5,21.3333 1122,26.5C 1124.03,49.1106 1125.37,71.7772 1126,94.5C 1129.17,168.514 1128.83,242.514 1125,316.5C 1085.57,260.62 1045.9,204.953 1006,149.5C 1005.4,110.16 1004.57,70.8266 1003.5,31.5C 1001.94,21.9048 1005.28,14.9048 1013.5,10.5 Z"/></g>
<g><path style="opacity:0.98" fill="#fdfefd" d="M 1244.5,10.5 C 1252.17,10.3336 1259.84,10.5003 1267.5,11C 1269.59,11.7922 1271.42,12.9588 1273,14.5C 1310.59,73.3468 1348.92,131.68 1388,189.5C 1388.33,188.833 1388.67,188.167 1389,187.5C 1426.84,243.847 1465.17,299.847 1504,355.5C 1506.85,360.954 1507.18,366.621 1505,372.5C 1502.43,378.543 1497.93,382.376 1491.5,384C 1459.67,385.764 1427.84,387.264 1396,388.5C 1390.67,388.589 1386.33,386.589 1383,382.5C 1351.58,332.664 1319.92,282.997 1288,233.5C 1244.53,171.255 1201.53,108.588 1159,45.5C 1157.68,37.1611 1158.68,29.1611 1162,21.5C 1163.87,19.2911 1166.04,17.4578 1168.5,16C 1193.9,13.2823 1219.23,11.449 1244.5,10.5 Z"/></g>
<g><path style="opacity:0.98" fill="#fdfefd" d="M 1396.5,10.5 C 1428.88,10.8828 1461.22,12.3828 1493.5,15C 1498.67,17.5 1502.5,21.3333 1505,26.5C 1511.61,125.45 1512.61,224.45 1508,323.5C 1468.72,265.226 1429.06,207.226 1389,149.5C 1388.07,106.828 1387.4,64.1617 1387,21.5C 1388.63,16.3818 1391.79,12.7151 1396.5,10.5 Z"/></g>
<g><path style="opacity:0.978" fill="#fdfefd" d="M 1156.5,81.5 C 1189.36,130.538 1222.86,179.205 1257,227.5C 1263.73,237.233 1270.06,247.233 1276,257.5C 1276.79,295.343 1277.62,333.176 1278.5,371C 1278.27,381.231 1273.1,387.064 1263,388.5C 1233.51,387.029 1204.01,385.529 1174.5,384C 1167.94,382.761 1163.11,379.261 1160,373.5C 1153.05,276.255 1151.88,178.922 1156.5,81.5 Z"/></g>
<g><path style="opacity:0.978" fill="#fdfefd" d="M 773.5,82.5 C 813.08,140.596 852.913,198.596 893,256.5C 893.809,294.508 894.643,332.508 895.5,370.5C 895.506,380.992 890.339,386.992 880,388.5C 850.508,387.029 821.008,385.529 791.5,384C 782.97,382.668 777.803,377.835 776,369.5C 770.089,273.866 769.256,178.2 773.5,82.5 Z"/></g>
</svg>
