<?xml version="1.0" standalone="no"?>
<!DOCTYPE svg PUBLIC "-//W3C//DTD SVG 20010904//EN"
 "http://www.w3.org/TR/2001/REC-SVG-20010904/DTD/svg10.dtd">
<svg version="1.0" xmlns="http://www.w3.org/2000/svg"
 width="2000.000000pt" height="400.000000pt" viewBox="0 0 2000.000000 400.000000"
 preserveAspectRatio="xMidYMid meet">

<g transform="translate(0.000000,400.000000) scale(0.100000,-0.100000)"
fill="#000000" stroke="none">
<path d="M16985 3929 c-307 -28 -624 -116 -835 -231 -204 -111 -425 -304 -542
-473 -61 -88 -154 -259 -188 -344 -167 -428 -198 -1028 -79 -1516 127 -519
477 -934 950 -1129 286 -118 536 -165 914 -173 270 -6 460 9 673 53 698 143
1162 574 1332 1235 53 206 64 317 65 639 0 335 -9 429 -65 650 -121 477 -385
829 -790 1053 -213 118 -536 207 -855 237 -127 12 -449 11 -580 -1z m505
-1054 c95 -30 182 -78 237 -132 130 -126 203 -395 203 -748 0 -620 -198 -894
-647 -895 -198 0 -348 50 -461 154 -124 116 -189 328 -199 656 -13 400 55 689
193 828 61 61 185 124 287 148 85 19 312 13 387 -11z"/>
<path d="M1523 3889 c-95 -5 -269 -15 -388 -23 -215 -13 -216 -13 -253 -43
-64 -51 -69 -73 -81 -323 -45 -940 -45 -2035 0 -2975 5 -121 14 -234 20 -251
11 -36 53 -78 91 -93 60 -22 923 -66 983 -50 18 5 48 26 66 46 l32 37 -6 635
c-4 349 -5 632 -3 630 2 -2 16 -35 31 -74 39 -104 95 -203 277 -485 90 -140
233 -365 317 -500 85 -135 160 -252 167 -261 31 -35 74 -37 371 -23 432 20
624 34 660 49 41 17 84 83 90 138 5 39 0 50 -49 123 -30 43 -246 359 -481 701
-235 342 -427 627 -427 633 0 6 33 77 74 158 74 147 471 967 551 1137 309 656
300 631 251 705 -41 62 -69 72 -261 86 -253 19 -726 38 -767 30 -43 -8 -84
-47 -108 -101 -19 -44 -341 -713 -527 -1095 -66 -135 -128 -267 -138 -295 -10
-27 -22 -54 -27 -59 -4 -6 -5 318 -1 720 7 811 10 772 -60 814 -36 22 -97 24
-404 9z"/>
<path d="M5060 3879 c-404 -19 -705 -41 -736 -54 -17 -7 -44 -30 -60 -51 -24
-31 -29 -47 -29 -93 0 -53 9 -73 179 -396 180 -341 393 -738 641 -1195 l134
-245 10 -808 10 -808 26 -44 c14 -25 38 -51 53 -59 37 -19 450 -30 778 -20
236 6 258 9 287 28 17 12 39 36 50 53 18 31 19 76 29 845 l10 813 192 335
c352 611 746 1311 806 1429 35 69 28 122 -24 179 -11 13 -32 30 -46 37 -29 15
-211 28 -673 49 -313 15 -352 13 -388 -20 -11 -9 -119 -214 -241 -456 -123
-241 -226 -438 -229 -438 -6 0 -172 311 -354 663 -54 104 -108 201 -122 217
-23 28 -79 52 -113 48 -8 0 -94 -5 -190 -9z"/>
<path d="M8565 3880 c-370 -16 -631 -32 -670 -42 -43 -10 -89 -47 -110 -88 -7
-14 -15 -61 -19 -105 l-7 -81 348 -509 c191 -281 454 -665 585 -855 313 -454
434 -633 473 -700 18 -30 147 -233 287 -450 140 -217 323 -504 407 -638 84
-133 167 -254 184 -268 l32 -27 240 7 c132 4 362 14 510 22 242 13 275 17 315
37 63 31 88 80 91 177 l3 75 -580 817 c-318 450 -604 853 -635 896 -74 104
-566 848 -860 1302 -130 201 -250 380 -266 399 -36 41 -50 43 -328 31z"/>
<path d="M10135 3876 c-16 -7 -41 -26 -55 -41 l-25 -27 3 -641 4 -642 24 -35
c14 -19 282 -399 597 -844 l572 -809 6 129 c4 71 10 404 14 739 8 636 -1 1138
-31 1709 -13 255 -18 305 -34 337 -24 45 -61 76 -109 89 -34 9 -274 23 -586
35 -77 3 -187 7 -245 10 -75 3 -113 1 -135 -9z"/>
<path d="M12395 3880 c-370 -16 -631 -32 -670 -42 -43 -10 -89 -47 -110 -88
-7 -14 -15 -60 -19 -103 l-7 -77 323 -473 c177 -259 477 -697 665 -972 188
-275 348 -511 355 -525 7 -14 111 -178 232 -365 177 -275 442 -692 648 -1017
17 -27 44 -60 61 -74 l32 -27 240 7 c132 4 362 14 510 22 245 13 274 17 315
37 57 30 90 83 90 151 0 47 -7 59 -274 450 -686 1006 -869 1272 -886 1291 -33
37 -796 1191 -1045 1580 -59 94 -121 183 -136 199 -34 36 -55 37 -324 26z"/>
<path d="M13965 3876 c-16 -7 -41 -26 -55 -41 l-25 -27 4 -631 c2 -413 7 -639
14 -652 9 -18 273 -406 935 -1373 129 -189 238 -340 242 -335 12 12 30 753 30
1203 0 448 -12 919 -35 1380 -16 312 -16 315 -43 360 -15 24 -43 53 -61 64
-38 22 -94 27 -501 45 -481 21 -473 21 -505 7z"/>
<path d="M11566 3048 c-14 -229 -19 -1469 -7 -1843 18 -583 38 -910 57 -951
17 -36 64 -77 99 -88 23 -7 478 -32 767 -42 190 -7 197 -6 231 15 71 44 69 23
61 677 l-7 586 -32 47 c-17 25 -162 237 -322 471 -477 699 -836 1225 -838
1228 -1 1 -5 -44 -9 -100z"/>
<path d="M7736 3038 c-14 -230 -18 -1440 -7 -1818 18 -595 38 -925 57 -966 17
-36 64 -77 99 -88 23 -7 478 -32 767 -42 190 -7 197 -6 231 15 71 44 69 24 61
669 -4 363 -10 584 -17 597 -6 11 -139 209 -297 440 -158 231 -418 614 -580
850 -161 237 -296 434 -300 438 -4 5 -10 -38 -14 -95z"/>
</g>
</svg>
