<?xml version="1.0" encoding="UTF-8"?>
<!DOCTYPE svg PUBLIC "-//W3C//DTD SVG 1.1//EN" "http://www.w3.org/Graphics/SVG/1.1/DTD/svg11.dtd">
<svg xmlns="http://www.w3.org/2000/svg" version="1.1" width="400px" height="400px" style="shape-rendering:geometricPrecision; text-rendering:geometricPrecision; image-rendering:optimizeQuality; fill-rule:evenodd; clip-rule:evenodd" xmlns:xlink="http://www.w3.org/1999/xlink">
<g><path style="opacity:0.984" fill="#000000" d="M 111.5,10.5 C 119.174,10.3336 126.841,10.5003 134.5,11C 136.587,11.7922 138.421,12.9588 140,14.5C 174.273,67.7702 208.94,120.77 244,173.5C 286.667,233.5 329.333,293.5 372,353.5C 374.467,362.219 373.467,370.553 369,378.5C 366.125,381.463 362.625,383.296 358.5,384C 326.673,385.764 294.84,387.264 263,388.5C 257.666,388.589 253.333,386.589 250,382.5C 215.166,326.828 179.833,271.494 144,216.5C 143.683,218.301 143.016,218.634 142,217.5C 103.725,160.226 65.0579,103.226 26,46.5C 24.6636,37.8316 25.6636,29.4983 29,21.5C 30.8734,19.2911 33.04,17.4578 35.5,16C 60.8969,13.2823 86.2302,11.449 111.5,10.5 Z"/></g>
<g><path style="opacity:0.987" fill="#000000" d="M 263.5,10.5 C 295.885,10.8828 328.218,12.3828 360.5,15C 365.667,17.5 369.5,21.3333 372,26.5C 374.032,49.1106 375.366,71.7772 376,94.5C 379.166,168.514 378.833,242.514 375,316.5C 335.567,260.62 295.9,204.953 256,149.5C 255.401,110.16 254.568,70.8266 253.5,31.5C 251.942,21.9048 255.276,14.9048 263.5,10.5 Z"/></g>
<g><path style="opacity:0.978" fill="#000000" d="M 23.5,82.5 C 63.0798,140.596 102.913,198.596 143,256.5C 143.809,294.508 144.643,332.508 145.5,370.5C 145.506,380.992 140.339,386.992 130,388.5C 100.508,387.029 71.0082,385.529 41.5,384C 32.9701,382.668 27.8034,377.835 26,369.5C 20.0893,273.866 19.256,178.2 23.5,82.5 Z"/></g>
</svg>
